<?xml version="1.0" standalone="no"?>
<!DOCTYPE svg PUBLIC "-//W3C//DTD SVG 1.1//EN" "http://www.w3.org/Graphics/SVG/1.1/DTD/svg11.dtd" >
<svg xmlns="http://www.w3.org/2000/svg" xmlns:xlink="http://www.w3.org/1999/xlink" version="1.1">
<metadata>
Created by FontForge 20201107 at Thu Mar 21 17:05:32 2002
 By 
Generated by Fontographer 4.1
</metadata>
<defs>
<font id="a2203" horiz-adv-x="645" >
  <font-face 
    font-family="222 03"
    font-weight="400"
    font-stretch="normal"
    units-per-em="1000"
    panose-1="0 0 4 0 0 0 0 0 0 0"
    ascent="800"
    descent="-200"
    x-height="800"
    cap-height="800"
    bbox="0 0 800 800"
    underline-thickness="20"
    underline-position="-143"
    unicode-range="U+0020-00F6"
  />
<missing-glyph horiz-adv-x="500" 
d="M63 0v800h375v-800h-375zM125 63h250v675h-250v-675z" />
    <glyph glyph-name=".notdef" horiz-adv-x="500" 
d="M63 0v800h375v-800h-375zM125 63h250v675h-250v-675z" />
    <glyph glyph-name=".null" horiz-adv-x="0" 
 />
    <glyph glyph-name="nonmarkingreturn" horiz-adv-x="500" 
 />
    <glyph glyph-name="space" unicode=" " horiz-adv-x="500" 
 />
    <glyph glyph-name="exclam" unicode="!" horiz-adv-x="282" 
d="M112 800q-46 0 -79 -33t-33 -79v-288q0 -46 33 -79t79 -33t79 33t33 79v288q0 46 -33 79t-79 33zM112 240q-46 0 -79 -33t-33 -79v-16q0 -46 33 -79t79 -33t79 33t33 79v16q0 46 -33 79t-79 33z" />
    <glyph glyph-name="zero" unicode="0" 
d="M256 800q-128 0 -198 -89q-58 -73 -58 -167v-288q0 -94 58 -167q70 -89 198 -89t198 89q58 73 58 167v288q0 94 -58 167q-70 89 -198 89zM288 258q-1 -34 -32 -34t-32 34v142v142q1 34 32 34t32 -34v-142v-142z" />
    <glyph glyph-name="one" unicode="1" horiz-adv-x="464" 
d="M256 800h-144q-46 0 -79 -33t-33 -79t33 -79t79 -33h32v-464q0 -46 33 -79t79 -33t79 33t33 79v576q0 46 -33 79t-79 33z" />
    <glyph glyph-name="two" unicode="2" 
d="M512 544q0 128 -89 198q-73 58 -167 58h-144q-46 0 -79 -33t-33 -79t33 -79t79 -33h142q34 0 34 -32q0 -30 -34 -32h2q-94 0 -167 -58q-89 -70 -89 -198v-144q0 -46 33 -79t79 -33h288q46 0 79 33t33 79t-33 79t-79 33h-176v32q0 30 34 32h-2q94 0 167 58q89 70 89 198z
" />
    <glyph glyph-name="three" unicode="3" 
d="M256 800h-144q-46 0 -79 -33t-33 -79t33 -79t79 -33h142q34 0 34 -32t-34 -32h-142q-46 0 -79 -33t-33 -79t33 -79t79 -33h142q34 0 34 -32t-34 -32h-142q-46 0 -79 -33t-33 -79t33 -79t79 -33h144q94 0 167 58q89 70 89 198q0 83 -40 144q40 61 40 144q0 128 -89 198
q-73 58 -167 58z" />
    <glyph glyph-name="four" unicode="4" 
d="M400 800q-46 0 -79 -33t-33 -79v-176h-64v176q0 46 -33 79t-79 33t-79 -33t-33 -79v-288q0 -46 33 -79t79 -33h176v-176q0 -46 33 -79t79 -33t79 33t33 79v576q0 46 -33 79t-79 33z" />
    <glyph glyph-name="five" unicode="5" 
d="M400 576q46 0 79 33t33 79t-33 79t-79 33h-288q-46 0 -79 -33t-33 -79v-288q0 -46 33 -79t79 -33h142q34 0 34 -32t-34 -32h-142q-46 0 -79 -33t-33 -79t33 -79t79 -33h144q94 0 167 58q89 70 89 198t-89 198q-73 58 -167 58h-32v64h176z" />
    <glyph glyph-name="six" unicode="6" 
d="M256 512q-15 0 -32 -5v37q0 30 34 32h-2q46 1 79 34t32 79q0 46 -32.5 78.5t-78.5 32.5q-94 0 -167 -58q-89 -70 -89 -198v-288q0 -94 58 -167q70 -89 198 -89t198 89q58 73 58 167t-58 167q-70 89 -198 89zM256 224q-30 0 -32 34q0 38 0 15q0 23 0 20q17 -5 32 -5
q29 0 32 -32q-3 -32 -32 -32z" />
    <glyph glyph-name="seven" unicode="7" 
d="M400 800h-288q-46 0 -79 -33t-33 -79t33 -79t79 -33h176v-69q-16 5 -32 5h-144q-46 0 -79 -33t-33 -79t33 -79t79 -33h144q16 0 32 5v-181q0 -46 33 -79t79 -33t79 33t33 79v576q0 46 -33 79t-79 33z" />
    <glyph glyph-name="eight" unicode="8" horiz-adv-x="827" 
d="M400 800h-144q-94 0 -167 -58q-89 -70 -89 -198q0 -83 40 -144q-40 -61 -40 -144q0 -128 89 -198q73 -58 167 -58h144q94 0 167 58q89 70 89 198q0 83 -40 144q40 61 40 144q0 128 -89 198q-73 58 -167 58zM258 576q70 3 140 0q34 -1 34 -32t-34 -32q-70 -3 -140 0
q-34 1 -34 32t34 32zM398 224q-70 -3 -140 0q-34 1 -34 32q0 32 34 32h140q34 0 34 -32q0 -31 -34 -32z" />
    <glyph glyph-name="nine" unicode="9" 
d="M256 800q-128 0 -198 -89q-58 -73 -58 -167t58 -167q70 -89 198 -89q15 0 32 5v-37q0 -30 -34 -32h2q-46 -1 -79 -34t-32 -79q0 -46 32.5 -78.5t78.5 -32.5q94 0 167 58q89 70 89 198v288q0 94 -58 167q-70 89 -198 89zM288 507q-17 5 -32 5q-29 0 -32 32q3 32 32 32
q30 0 32 -34q0 -38 0 -15q0 -23 0 -20z" />
    <glyph glyph-name="question" unicode="?" 
d="M400 240q-46 0 -79 -33t-33 -79v-16q0 -46 33 -79t79 -33t79 33t33 79v16q0 46 -33 79t-79 33zM256 800h-144q-46 0 -79 -33t-33 -79t33 -79t79 -33h144q32 0 32 -34v-142q0 -46 33 -79t79 -33t79 33t33 79v144q0 94 -58 167q-70 89 -198 89z" />
    <glyph glyph-name="A" unicode="A" 
d="M112 0q46 0 79 33t33 79v32h64v-32q0 -46 33 -79t79 -33t79 33t33 79v432q0 94 -58 167q-70 89 -198 89t-198 -89q-58 -73 -58 -167v-432q0 -46 33 -79t79 -33zM256 576q30 0 32 -34v-174h-64v174q2 34 32 34z" />
    <glyph glyph-name="B" unicode="B" 
d="M112 0h288q46 0 79 33t33 79v576q0 46 -33 79t-79 33h-288q-46 0 -79 -33t-33 -79v-576q0 -46 33 -79t79 -33zM224 576h64v-64h-32q-15 0 -32 -5v69zM224 293q17 -5 32 -5h32v-64h-64v69z" />
    <glyph glyph-name="C" unicode="C" 
d="M256 0q128 0 198 89q58 73 58 167q0 46 -32.5 78.5t-78.5 32.5q-46 1 -79 -32t-34 -79v2q-2 -34 -32 -34q-31 0 -32 34v142v142q1 34 32 34q30 0 32 -34v2q1 -46 34 -79t79 -32q46 0 78.5 32.5t32.5 78.5q0 94 -58 167q-70 89 -198 89t-198 -89q-58 -73 -58 -167v-288
q0 -94 58 -167q70 -89 198 -89z" />
    <glyph glyph-name="D" unicode="D" 
d="M112 0h144q68 0 132 52q124 100 124 348t-124 348q-64 52 -132 52h-144q-46 0 -79 -33t-33 -79v-576q0 -46 33 -79t79 -33zM224 576h21q14 -9 26 -43q17 -51 17 -133t-17 -132q-12 -35 -26 -44h-21v352z" />
    <glyph glyph-name="E" unicode="E" 
d="M112 0h288q46 0 79 33t33 79t-33 79t-79 33h-176v64h176q46 0 79 33t33 79t-33 79t-79 33h-176v64h176q46 0 79 33t33 79t-33 79t-79 33h-288q-46 0 -79 -33t-33 -79v-576q0 -46 33 -79t79 -33z" />
    <glyph glyph-name="F" unicode="F" 
d="M112 0q46 0 79 33t33 79v181q16 -5 32 -5h144q46 0 79 33t33 79t-33 79t-79 33h-144q-16 0 -32 -5v69h176q46 0 79 33t33 79t-33 79t-79 33h-288q-46 0 -79 -33t-33 -79v-576q0 -46 33 -79t79 -33z" />
    <glyph glyph-name="G" unicode="G" horiz-adv-x="827" 
d="M112 0h288q46 0 79 33t33 79v176h32q46 0 79 33t33 79t-33 79t-79 33h-144q-46 0 -79 -33t-33 -79v-176h-64v352h176q46 0 79 33t33 79t-33 79t-79 33h-288q-46 0 -79 -33t-33 -79v-576q0 -46 33 -79t79 -33z" />
    <glyph glyph-name="H" unicode="H" 
d="M112 0q46 0 79 33t33 79v176h64v-176q0 -46 33 -79t79 -33t79 33t33 79v576q0 46 -33 79t-79 33t-79 -33t-33 -79v-176h-64v176q0 46 -33 79t-79 33t-79 -33t-33 -79v-576q0 -46 33 -79t79 -33z" />
    <glyph glyph-name="I" unicode="I" horiz-adv-x="306" 
d="M224 112v576q0 46 -33 79t-79 33t-79 -33t-33 -79v-576q0 -46 33 -79t79 -33t79 33t33 79z" />
    <glyph glyph-name="J" unicode="J" 
d="M400 800q-46 0 -79 -33t-33 -79v-430q0 -34 -32 -34q-30 0 -32 34v-2q-1 46 -34 79t-79 32q-46 0 -78.5 -32.5t-32.5 -78.5q0 -94 58 -167q70 -89 198 -89t198 89q58 73 58 167v432q0 46 -33 79t-79 33z" />
    <glyph glyph-name="K" unicode="K" 
d="M0 255v-143q0 -46 33 -79t79 -33t79 33t33 79v102l76 -152q31 -62 100 -62q26 0 50 12q62 31 62 100q0 26 -12 50l-135 271l128 193q19 28 19 62q0 60 -50 93q-28 19 -62 19q-60 0 -93 -50l-83 -124v62q0 46 -33 79t-79 33t-79 -33t-33 -79v-433z" />
    <glyph glyph-name="L" unicode="L" 
d="M112 0h288q46 0 79 33t33 79t-33 79t-79 33h-176v464q0 46 -33 79t-79 33t-79 -33t-33 -79v-576q0 -46 33 -79t79 -33z" />
    <glyph glyph-name="M" unicode="M" horiz-adv-x="1008" 
d="M800 112v576q0 46 -33 79t-79 33h-576q-46 0 -79 -33t-33 -79v-576q0 -46 33 -79t79 -33t79 33t33 79v464h64v-464q0 -46 33 -79t79 -33t79 33t33 79v464h64v-464q0 -46 33 -79t79 -33t79 33t33 79z" />
    <glyph glyph-name="N" unicode="N" 
d="M400 800h-288q-46 0 -79 -33t-33 -79v-576q0 -46 33 -79t79 -33t79 33t33 79v464h64v-464q0 -46 33 -79t79 -33t79 33t33 79v576q0 46 -33 79t-79 33z" />
    <glyph glyph-name="O" unicode="O" 
d="M400 800h-288q-46 0 -79 -33t-33 -79v-576q0 -46 33 -79t79 -33h288q46 0 79 33t33 79v576q0 46 -33 79t-79 33zM288 224h-64v352h64v-352z" />
    <glyph glyph-name="P" unicode="P" 
d="M400 800h-288q-46 0 -79 -33t-33 -79v-576q0 -46 33 -79t79 -33t79 33t33 79v181q17 -5 32 -5h144q46 0 79 33t33 79v288q0 46 -33 79t-79 33zM288 512h-32q-15 0 -32 -5v69h64v-64z" />
    <glyph glyph-name="Q" unicode="Q" 
d="M288 112q0 -46 33 -79t79 -33t79 33t33 79v576q0 46 -33 79t-79 33h-288q-46 0 -79 -33t-33 -79v-288q0 -46 33 -79t79 -33h176v-176zM224 512v64h64v-64h-64z" />
    <glyph glyph-name="R" unicode="R" 
d="M224 112v18l97 -97q33 -33 79 -33t79 33t33 79t-33 79l-97 97h18q46 0 79 33t33 79v288q0 46 -33 79t-79 33h-288q-46 0 -79 -33t-33 -79v-576q0 -46 33 -79t79 -33t79 33t33 79zM224 576h64v-64h-32q-15 0 -32 -5v69z" />
    <glyph glyph-name="S" unicode="S" 
d="M400 0q46 0 79 33t33 79v288q0 46 -33 79t-79 33h-176v64h176q46 0 79 33t33 79t-33 79t-79 33h-288q-46 0 -79 -33t-33 -79v-288q0 -46 33 -79t79 -33h176v-64h-176q-46 0 -79 -33t-33 -79t33 -79t79 -33h288z" />
    <glyph glyph-name="T" unicode="T" 
d="M144 576v-464q0 -46 33 -79t79 -33t79 33t33 79v464h32q46 0 79 33t33 79t-33 79t-79 33h-288q-46 0 -79 -33t-33 -79t33 -79t79 -33h32z" />
    <glyph glyph-name="U" unicode="U" 
d="M400 0q46 0 79 33t33 79v576q0 46 -33 79t-79 33t-79 -33t-33 -79v-464h-64v464q0 46 -33 79t-79 33t-79 -33t-33 -79v-576q0 -46 33 -79t79 -33h288z" />
    <glyph glyph-name="V" unicode="V" 
d="M256 0q39 0 69 23.5t40 61.5l144 576q3 13 3 27q0 47 -33 79.5t-79 32.5q-38 0 -68.5 -23.5t-40.5 -61.5l-35 -141l-35 141q-10 38 -40.5 61.5t-68.5 23.5q-46 0 -79 -32.5t-33 -79.5q0 -14 3 -27l144 -576q10 -38 40 -61.5t69 -23.5z" />
    <glyph glyph-name="W" unicode="W" horiz-adv-x="1008" 
d="M688 800q-46 0 -79 -33t-33 -79v-464h-69q5 16 5 32v432q0 46 -33 79t-79 33t-79 -33t-33 -79v-432q0 -16 5 -32h-69v464q0 46 -33 79t-79 33t-79 -33t-33 -79v-576q0 -46 33 -79t79 -33h576q46 0 79 33t33 79v576q0 46 -33 79t-79 33z" />
    <glyph glyph-name="X" unicode="X" 
d="M300 738l-44 -88l-44 88q-31 62 -100 62q-26 0 -50 -12q-62 -31 -62 -100q0 -26 12 -50l119 -238l-119 -238q-12 -24 -12 -50q0 -69 62 -100q24 -12 50 -12q69 0 100 62l44 88l44 -88q31 -62 100 -62q26 0 50 12q62 31 62 100q0 26 -12 50l-119 238l119 238q12 24 12 50
q0 69 -62 100q-24 12 -50 12q-69 0 -100 -62z" />
    <glyph glyph-name="Y" unicode="Y" 
d="M400 0q46 0 79 33t33 79v576q0 46 -33 79t-79 33t-79 -33t-33 -79v-176h-64v176q0 46 -33 79t-79 33t-79 -33t-33 -79v-288q0 -46 33 -79t79 -33h176v-64h-176q-46 0 -79 -33t-33 -79t33 -79t79 -33h288z" />
    <glyph glyph-name="Z" unicode="Z" 
d="M400 0q46 0 79 33t33 79t-33 79t-79 33h-176v64h176q46 0 79 33t33 79v288q0 46 -33 79t-79 33h-288q-46 0 -79 -33t-33 -79t33 -79t79 -33h176v-64h-176q-46 0 -79 -33t-33 -79v-288q0 -46 33 -79t79 -33h288z" />
    <glyph glyph-name="a" unicode="a" 
d="M112 0q46 0 79 33t33 79v32h64v-32q0 -46 33 -79t79 -33t79 33t33 79v432q0 94 -58 167q-70 89 -198 89t-198 -89q-58 -73 -58 -167v-432q0 -46 33 -79t79 -33zM256 576q30 0 32 -34v-174h-64v174q2 34 32 34z" />
    <glyph glyph-name="b" unicode="b" 
d="M112 0h288q46 0 79 33t33 79v576q0 46 -33 79t-79 33h-288q-46 0 -79 -33t-33 -79v-576q0 -46 33 -79t79 -33zM224 576h64v-64h-32q-15 0 -32 -5v69zM224 293q17 -5 32 -5h32v-64h-64v69z" />
    <glyph glyph-name="c" unicode="c" 
d="M256 0q128 0 198 89q58 73 58 167q0 46 -32.5 78.5t-78.5 32.5q-46 1 -79 -32t-34 -79v2q-2 -34 -32 -34q-31 0 -32 34v142v142q1 34 32 34q30 0 32 -34v2q1 -46 34 -79t79 -32q46 0 78.5 32.5t32.5 78.5q0 94 -58 167q-70 89 -198 89t-198 -89q-58 -73 -58 -167v-288
q0 -94 58 -167q70 -89 198 -89z" />
    <glyph glyph-name="d" unicode="d" 
d="M112 0h144q68 0 132 52q124 100 124 348t-124 348q-64 52 -132 52h-144q-46 0 -79 -33t-33 -79v-576q0 -46 33 -79t79 -33zM224 576h21q14 -9 26 -43q17 -51 17 -133t-17 -132q-12 -35 -26 -44h-21v352z" />
    <glyph glyph-name="e" unicode="e" 
d="M112 0h288q46 0 79 33t33 79t-33 79t-79 33h-176v64h176q46 0 79 33t33 79t-33 79t-79 33h-176v64h176q46 0 79 33t33 79t-33 79t-79 33h-288q-46 0 -79 -33t-33 -79v-576q0 -46 33 -79t79 -33z" />
    <glyph glyph-name="f" unicode="f" 
d="M112 0q46 0 79 33t33 79v181q16 -5 32 -5h144q46 0 79 33t33 79t-33 79t-79 33h-144q-16 0 -32 -5v69h176q46 0 79 33t33 79t-33 79t-79 33h-288q-46 0 -79 -33t-33 -79v-576q0 -46 33 -79t79 -33z" />
    <glyph glyph-name="g" unicode="g" horiz-adv-x="827" 
d="M112 0h288q46 0 79 33t33 79v176h32q46 0 79 33t33 79t-33 79t-79 33h-144q-46 0 -79 -33t-33 -79v-176h-64v352h176q46 0 79 33t33 79t-33 79t-79 33h-288q-46 0 -79 -33t-33 -79v-576q0 -46 33 -79t79 -33z" />
    <glyph glyph-name="h" unicode="h" 
d="M112 0q46 0 79 33t33 79v176h64v-176q0 -46 33 -79t79 -33t79 33t33 79v576q0 46 -33 79t-79 33t-79 -33t-33 -79v-176h-64v176q0 46 -33 79t-79 33t-79 -33t-33 -79v-576q0 -46 33 -79t79 -33z" />
    <glyph glyph-name="i" unicode="i" horiz-adv-x="306" 
d="M224 112v576q0 46 -33 79t-79 33t-79 -33t-33 -79v-576q0 -46 33 -79t79 -33t79 33t33 79z" />
    <glyph glyph-name="j" unicode="j" 
d="M400 800q-46 0 -79 -33t-33 -79v-430q0 -34 -32 -34q-30 0 -32 34v-2q-1 46 -34 79t-79 32q-46 0 -78.5 -32.5t-32.5 -78.5q0 -94 58 -167q70 -89 198 -89t198 89q58 73 58 167v432q0 46 -33 79t-79 33z" />
    <glyph glyph-name="k" unicode="k" 
d="M0 255v-143q0 -46 33 -79t79 -33t79 33t33 79v102l76 -152q31 -62 100 -62q26 0 50 12q62 31 62 100q0 26 -12 50l-135 271l128 193q19 28 19 62q0 60 -50 93q-28 19 -62 19q-60 0 -93 -50l-83 -124v62q0 46 -33 79t-79 33t-79 -33t-33 -79v-433z" />
    <glyph glyph-name="l" unicode="l" 
d="M112 0h288q46 0 79 33t33 79t-33 79t-79 33h-176v464q0 46 -33 79t-79 33t-79 -33t-33 -79v-576q0 -46 33 -79t79 -33z" />
    <glyph glyph-name="m" unicode="m" horiz-adv-x="1008" 
d="M800 112v576q0 46 -33 79t-79 33h-576q-46 0 -79 -33t-33 -79v-576q0 -46 33 -79t79 -33t79 33t33 79v464h64v-464q0 -46 33 -79t79 -33t79 33t33 79v464h64v-464q0 -46 33 -79t79 -33t79 33t33 79z" />
    <glyph glyph-name="n" unicode="n" 
d="M400 800h-288q-46 0 -79 -33t-33 -79v-576q0 -46 33 -79t79 -33t79 33t33 79v464h64v-464q0 -46 33 -79t79 -33t79 33t33 79v576q0 46 -33 79t-79 33z" />
    <glyph glyph-name="o" unicode="o" 
d="M400 800h-288q-46 0 -79 -33t-33 -79v-576q0 -46 33 -79t79 -33h288q46 0 79 33t33 79v576q0 46 -33 79t-79 33zM288 224h-64v352h64v-352z" />
    <glyph glyph-name="p" unicode="p" 
d="M400 800h-288q-46 0 -79 -33t-33 -79v-576q0 -46 33 -79t79 -33t79 33t33 79v181q17 -5 32 -5h144q46 0 79 33t33 79v288q0 46 -33 79t-79 33zM288 512h-32q-15 0 -32 -5v69h64v-64z" />
    <glyph glyph-name="q" unicode="q" 
d="M288 112q0 -46 33 -79t79 -33t79 33t33 79v576q0 46 -33 79t-79 33h-288q-46 0 -79 -33t-33 -79v-288q0 -46 33 -79t79 -33h176v-176zM224 512v64h64v-64h-64z" />
    <glyph glyph-name="r" unicode="r" 
d="M224 112v18l97 -97q33 -33 79 -33t79 33t33 79t-33 79l-97 97h18q46 0 79 33t33 79v288q0 46 -33 79t-79 33h-288q-46 0 -79 -33t-33 -79v-576q0 -46 33 -79t79 -33t79 33t33 79zM224 576h64v-64h-32q-15 0 -32 -5v69z" />
    <glyph glyph-name="s" unicode="s" 
d="M400 0q46 0 79 33t33 79v288q0 46 -33 79t-79 33h-176v64h176q46 0 79 33t33 79t-33 79t-79 33h-288q-46 0 -79 -33t-33 -79v-288q0 -46 33 -79t79 -33h176v-64h-176q-46 0 -79 -33t-33 -79t33 -79t79 -33h288z" />
    <glyph glyph-name="t" unicode="t" 
d="M144 576v-464q0 -46 33 -79t79 -33t79 33t33 79v464h32q46 0 79 33t33 79t-33 79t-79 33h-288q-46 0 -79 -33t-33 -79t33 -79t79 -33h32z" />
    <glyph glyph-name="u" unicode="u" 
d="M400 0q46 0 79 33t33 79v576q0 46 -33 79t-79 33t-79 -33t-33 -79v-464h-64v464q0 46 -33 79t-79 33t-79 -33t-33 -79v-576q0 -46 33 -79t79 -33h288z" />
    <glyph glyph-name="v" unicode="v" 
d="M256 0q39 0 69 23.5t40 61.5l144 576q3 13 3 27q0 47 -33 79.5t-79 32.5q-38 0 -68.5 -23.5t-40.5 -61.5l-35 -141l-35 141q-10 38 -40.5 61.5t-68.5 23.5q-46 0 -79 -32.5t-33 -79.5q0 -14 3 -27l144 -576q10 -38 40 -61.5t69 -23.5z" />
    <glyph glyph-name="w" unicode="w" horiz-adv-x="1008" 
d="M688 800q-46 0 -79 -33t-33 -79v-464h-69q5 16 5 32v432q0 46 -33 79t-79 33t-79 -33t-33 -79v-432q0 -16 5 -32h-69v464q0 46 -33 79t-79 33t-79 -33t-33 -79v-576q0 -46 33 -79t79 -33h576q46 0 79 33t33 79v576q0 46 -33 79t-79 33z" />
    <glyph glyph-name="x" unicode="x" 
d="M300 738l-44 -88l-44 88q-31 62 -100 62q-26 0 -50 -12q-62 -31 -62 -100q0 -26 12 -50l119 -238l-119 -238q-12 -24 -12 -50q0 -69 62 -100q24 -12 50 -12q69 0 100 62l44 88l44 -88q31 -62 100 -62q26 0 50 12q62 31 62 100q0 26 -12 50l-119 238l119 238q12 24 12 50
q0 69 -62 100q-24 12 -50 12q-69 0 -100 -62z" />
    <glyph glyph-name="y" unicode="y" 
d="M400 0q46 0 79 33t33 79v576q0 46 -33 79t-79 33t-79 -33t-33 -79v-176h-64v176q0 46 -33 79t-79 33t-79 -33t-33 -79v-288q0 -46 33 -79t79 -33h176v-64h-176q-46 0 -79 -33t-33 -79t33 -79t79 -33h288z" />
    <glyph glyph-name="z" unicode="z" 
d="M400 0q46 0 79 33t33 79t-33 79t-79 33h-176v64h176q46 0 79 33t33 79v288q0 46 -33 79t-79 33h-288q-46 0 -79 -33t-33 -79t33 -79t79 -33h176v-64h-176q-46 0 -79 -33t-33 -79v-288q0 -46 33 -79t79 -33h288z" />
    <glyph glyph-name="Adieresis" unicode="&#xc4;" 
d="M512 112v288q0 46 -33 79t-79 33h-288q-46 0 -79 -33t-33 -79v-288q0 -46 33 -79t79 -33t79 33t33 79v176h64v-176q0 -46 33 -79t79 -33t79 33t33 79zM112 576h16q46 0 79 33t33 79t-33 79t-79 33h-16q-46 0 -79 -33t-33 -79t33 -79t79 -33zM400 800h-16q-46 0 -79 -33
t-33 -79t33 -79t79 -33h16q46 0 79 33t33 79t-33 79t-79 33z" />
    <glyph glyph-name="Odieresis" unicode="&#xd6;" 
d="M400 512h-288q-46 0 -79 -33t-33 -79v-288q0 -46 33 -79t79 -33h288q46 0 79 33t33 79v288q0 46 -33 79t-79 33zM288 224h-64v64h64v-64zM112 576h16q46 0 79 33t33 79t-33 79t-79 33h-16q-46 0 -79 -33t-33 -79t33 -79t79 -33zM400 800h-16q-46 0 -79 -33t-33 -79
t33 -79t79 -33h16q46 0 79 33t33 79t-33 79t-79 33z" />
    <glyph glyph-name="adieresis" unicode="&#xe4;" 
d="M512 112v288q0 46 -33 79t-79 33h-288q-46 0 -79 -33t-33 -79v-288q0 -46 33 -79t79 -33t79 33t33 79v176h64v-176q0 -46 33 -79t79 -33t79 33t33 79zM112 576h16q46 0 79 33t33 79t-33 79t-79 33h-16q-46 0 -79 -33t-33 -79t33 -79t79 -33zM400 800h-16q-46 0 -79 -33
t-33 -79t33 -79t79 -33h16q46 0 79 33t33 79t-33 79t-79 33z" />
    <glyph glyph-name="odieresis" unicode="&#xf6;" 
d="M400 512h-288q-46 0 -79 -33t-33 -79v-288q0 -46 33 -79t79 -33h288q46 0 79 33t33 79v288q0 46 -33 79t-79 33zM288 224h-64v64h64v-64zM112 576h16q46 0 79 33t33 79t-33 79t-79 33h-16q-46 0 -79 -33t-33 -79t33 -79t79 -33zM400 800h-16q-46 0 -79 -33t-33 -79
t33 -79t79 -33h16q46 0 79 33t33 79t-33 79t-79 33z" />
  </font>
</defs>
</svg>
